<?xml version="1.0" encoding="utf-8"?>
<!-- Generator: Adobe Illustrator 24.0.1, SVG Export Plug-In . SVG Version: 6.00 Build 0)  -->
<svg version="1.1" id="Calque_1" xmlns="http://www.w3.org/2000/svg" xmlns:xlink="http://www.w3.org/1999/xlink" x="0px" y="0px"
	 viewBox="0 0 228.7 39.1" style="enable-background:new 0 0 228.7 39.1;" xml:space="preserve">
<style type="text/css">
	.st0{fill:#A8EB12;}
</style>
<g>
	<g>
		<path class="st0" d="M27.3,21.4c0,2.8-2.3,5.1-5.2,5.1c-1.3,0-2.5-0.5-3.5-1.3l0,0l0,0l-2.4,2.3l0,0l0,0c0.3,0.4,0.5,0.9,0.5,1.5
			c0,1.4-1.2,2.5-2.6,2.5c-1.4,0-2.6-1.1-2.6-2.5c0-1.4,1.2-2.5,2.6-2.5c0.6,0,1.2,0.2,1.6,0.6l2.5-2.4c-0.8-0.9-1.3-2.1-1.3-3.4
			c0-1.3,0.5-2.6,1.4-3.5l0,0l0,0l-3.9-3.8l0,0l0,0c-1.4,1.3-3.3,2.1-5.4,2.1c-4.3,0-7.9-3.4-7.9-7.6c0-4.2,3.5-7.6,7.9-7.6
			c4.3,0,7.9,3.4,7.9,7.6c0,1.9-0.7,3.7-2,5l0,0l0,0l4,3.8l0,0l0,0c0.9-0.7,2.1-1.2,3.3-1.2C25,16.3,27.3,18.6,27.3,21.4z"/>
	</g>
	<path class="st0" d="M19.1,7.1l-1.1,0c-0.4,0-0.7,0.3-0.7,0.8c0,0.2,0,0.4,0,0.6c0,0.9-0.1,1.8-0.4,2.6c-0.1,0.4,0.2,0.9,0.7,0.9h0
		c5.9,0,10.2,2.9,10.2,10.2c0,7.3-5,10.2-10.8,10.2h-3.1c-0.1,0-0.1,0-0.2,0c-1.8-0.1-3.2-1.6-3.2-3.3c0-1.4,0.9-2.6,2.2-3.1
		c0.3-0.1,0.5-0.4,0.5-0.7l0-8.4c0-0.5-0.5-0.8-1-0.6c-1.1,0.5-2.3,0.7-3.5,0.7c-0.1,0-0.2,0-0.3,0v14.9c0,3,2.2,5.4,4.9,5.4h5.4
		c5.9,0,14.3-4.4,14.3-15.1C32.9,12.1,26.2,7.1,19.1,7.1z"/>
	<path class="st0" d="M39.9,37.8h-4.5V9.2c0-1.2,0.5-1.8,1.6-1.8h2.9V37.8z"/>
	<path class="st0" d="M61.5,20c1.7,0,2.5,1,2.5,2.9v13.3c-0.7,0.4-1.5,0.7-2.4,1c-0.9,0.3-1.9,0.5-3.1,0.7c-1.2,0.2-2.5,0.3-4,0.3
		c-1.1,0-2.3-0.2-3.7-0.5c-1.3-0.4-2.5-1.1-3.6-2.2s-2.1-2.7-2.8-4.7c-0.8-2.1-1.1-4.8-1.1-8.1s0.4-6,1.1-8.1c0.8-2,1.7-3.6,2.8-4.7
		c1.1-1.1,2.4-1.8,3.7-2.2C52.3,7.2,53.5,7,54.6,7c1.3,0,2.5,0.1,3.6,0.3c1.1,0.2,2,0.5,2.8,0.8c0.8,0.3,1.6,0.6,2.2,1v2.8
		c0,0.8-0.2,1.3-0.5,1.6c-0.3,0.2-0.9,0.2-1.7-0.2c-1.6-0.6-2.9-1-3.9-1.2c-1-0.2-1.9-0.3-2.5-0.3c-1.3,0-2.4,0.3-3.2,0.9
		c-0.9,0.6-1.6,1.4-2.1,2.4c-0.5,1-0.9,2.1-1.1,3.4c-0.2,1.3-0.3,2.6-0.3,4c0,3.4,0.6,6,1.9,7.8c1.3,1.8,3.2,2.7,5.8,2.7
		c0.9,0,1.6,0,2.2-0.1s1.2-0.2,1.7-0.4v-7.4h-4.1c-1.1,0-1.7-0.7-1.7-2V20H61.5z"/>
	<path class="st0" d="M73.1,37.8h-4.5V9.2c0-1.2,0.5-1.8,1.6-1.8h2.9V37.8z"/>
	<path class="st0" d="M95.5,7.4v3.2c0,1.3-0.5,2-1.6,2h-6v25.3h-4.5V12.5h-7.6V9.2c0-1.2,0.6-1.8,1.7-1.8H95.5z"/>
	<path class="st0" d="M116.4,35.6c0.2,0.5,0.2,1,0,1.5c-0.2,0.5-0.7,0.7-1.4,0.7h-2.9l-2.1-6.4h-9.9l-2,6.4h-3
		c-0.7,0-1.2-0.2-1.4-0.7c-0.2-0.5-0.2-1,0-1.5c1.2-3.6,4.1-12.3,8.7-26.2c0.3-0.9,0.6-1.5,1.1-1.9c0.5-0.4,1-0.6,1.5-0.6
		c0.5,0,1,0.2,1.5,0.6c0.5,0.4,0.8,1,1.2,1.9L116.4,35.6z M108.4,26.4l-3.4-10.9l-3.3,10.9H108.4z"/>
	<path class="st0" d="M136.8,32.7v3.2c0,1.2-0.5,1.9-1.6,1.9h-9.1c-1.2,0-2.1-0.2-2.9-0.5c-0.8-0.4-1.5-0.8-2-1.5
		c-0.5-0.6-0.9-1.4-1.1-2.3c-0.2-0.9-0.4-1.8-0.4-2.9V9.2c0-1.2,0.5-1.8,1.6-1.8h2.9v22.4c0,1.1,0.2,1.8,0.6,2.3
		c0.4,0.4,1,0.7,1.9,0.7H136.8z"/>
	<path class="st0" d="M157.1,15.7c0,0.8-0.1,1.7-0.4,2.8c-0.3,1.1-0.8,2.1-1.6,3.1c1.5,0.8,2.6,1.8,3.3,3.2c0.7,1.3,1,2.7,1,4
		c0,0.9-0.1,1.9-0.3,3c-0.2,1.1-0.7,2.1-1.3,3c-0.6,0.9-1.5,1.7-2.6,2.3c-1.1,0.6-2.5,0.9-4.2,0.9h-7.6c-1.1,0-2-0.4-2.6-1.1
		c-0.7-0.7-1-1.8-1-3.1V9.2c0.4-0.2,0.8-0.4,1.4-0.7c0.5-0.3,1.1-0.5,1.8-0.7c0.7-0.2,1.4-0.4,2.2-0.6c0.8-0.2,1.7-0.3,2.7-0.3
		c1.3,0,2.6,0.2,3.7,0.5c1.2,0.4,2.2,0.9,3,1.6c0.8,0.7,1.5,1.6,2,2.7C156.8,12.9,157.1,14.2,157.1,15.7z M144.1,19.6h3.8
		c1.6,0,2.7-0.4,3.4-1.2c0.7-0.8,1-1.7,1-2.7c0-1.2-0.4-2.1-1-2.8c-0.7-0.7-1.8-1.1-3.4-1.1c-0.4,0-1,0-1.6,0.1
		c-0.6,0.1-1.4,0.2-2.2,0.4V19.6z M150.2,32.7c0.9,0,1.5-0.1,2.1-0.4c0.5-0.2,0.9-0.6,1.2-1c0.3-0.4,0.4-0.8,0.5-1.3
		c0.1-0.4,0.1-0.9,0.1-1.3c0-0.5-0.1-0.9-0.3-1.4c-0.2-0.5-0.4-0.9-0.8-1.3c-0.4-0.4-0.8-0.7-1.4-0.9c-0.6-0.2-1.3-0.3-2.1-0.3h-5.4
		v7.9H150.2z"/>
	<path class="st0" d="M184.4,7.4c0.5,0,0.8,0.1,1,0.3c0.2,0.2,0.4,0.4,0.5,0.6c0.1,0.2,0.1,0.5,0,0.8c-0.1,0.3-0.1,0.5-0.2,0.7
		l-9.4,15.6v10.5c0,1.3-0.5,1.9-1.6,1.9h-2.9V25.3L162.5,10c-0.2-0.2-0.3-0.4-0.4-0.7c-0.1-0.3-0.1-0.6,0-0.9
		c0.1-0.3,0.2-0.5,0.5-0.7c0.2-0.2,0.6-0.3,1-0.3h2.9l7.5,12.2l7.5-12.2H184.4z"/>
	<path class="st0" d="M207.7,7.4v3.2c0,1.3-0.5,2-1.6,2h-6v25.3h-4.5V12.5H188V9.2c0-1.2,0.6-1.8,1.7-1.8H207.7z"/>
	<path class="st0" d="M214.4,12.5v6.9h9.6v3.1c0,1.4-0.6,2-1.8,2h-7.8v8.2h13.4v3.2c0,1.3-0.7,1.9-1.9,1.9H214
		c-2.8,0-4.2-1.4-4.2-4.2V12.1c0-3.1,1.5-4.7,4.6-4.7h13.3v3.2c0,1.3-0.6,1.9-1.7,1.9H214.4z"/>
</g>
</svg>
